<?xml version="1.0" encoding="utf-8"?>
<!-- Uploaded to: SVG Repo, www.svgrepo.com, Generator: SVG Repo Mixer Tools -->
<svg width="800px" height="800px" viewBox="0 0 1024 1024" class="icon"  version="1.1" xmlns="http://www.w3.org/2000/svg"><path d="M159.47 513.51a350 440 0 1 0 700 0 350 440 0 1 0-700 0Z" fill="#FFFFFF" /><path d="M509.47 961C461 961 414 949.08 369.71 925.56c-42.59-22.65-80.81-55-113.6-96.25C189 744.88 152 632.73 152 513.51s37-231.37 104.14-315.8c32.79-41.22 71-73.6 113.6-96.25C414 77.94 461 66 509.47 66S605 77.94 649.23 101.47c42.59 22.65 80.81 55 113.6 96.25C830 282.14 867 394.29 867 513.51s-37 231.37-104.14 315.8c-32.79 41.22-71 73.6-113.6 96.25C605 949.08 558 961 509.47 961z m0-880c-46 0-90.66 11.34-132.71 33.7-40.76 21.67-77.4 52.74-108.9 92.34s-56.42 86-73.77 137.58c-18 53.49-27.09 110.31-27.09 168.89s9.12 115.4 27.11 168.88C211.43 734 236.25 780.24 267.85 820s68.14 70.67 108.9 92.34c42.05 22.36 86.71 33.7 132.71 33.7s90.66-11.34 132.71-33.7c40.76-21.68 77.4-52.74 108.9-92.34s56.42-86 73.77-137.58C842.85 628.92 852 572.1 852 513.51s-9.12-115.4-27.11-168.88c-17.35-51.57-42.17-97.86-73.77-137.58S683 136.39 642.19 114.71C600.13 92.35 555.48 81 509.47 81z" fill="#66A9F7" /><path d="M209.47 513.51a300 380 0 1 0 600 0 300 380 0 1 0-600 0Z" fill="#DFEDFF" /><path d="M509.49 896a243.9 243.9 0 0 1-29.81-1.83 2.5 2.5 0 1 1 0.61-5 238.86 238.86 0 0 0 29.18 1.83h0.19a2.5 2.5 0 1 1 0 5z m29.84-1.86a2.5 2.5 0 0 1-0.31-5 239.68 239.68 0 0 0 28.91-5.45 2.5 2.5 0 0 1 1.23 4.85 244.8 244.8 0 0 1-29.52 5.56z m-88.57-5.42a2.51 2.51 0 0 1-0.61-0.08 251.55 251.55 0 0 1-28.64-9.06 2.5 2.5 0 1 1 1.79-4.67 246.35 246.35 0 0 0 28.06 8.88 2.5 2.5 0 0 1-0.61 4.93z m146.12-9.11a2.5 2.5 0 0 1-0.9-4.83 258.17 258.17 0 0 0 26.83-12.16 2.5 2.5 0 0 1 2.32 4.43 263.34 263.34 0 0 1-27.35 12.4 2.49 2.49 0 0 1-0.9 0.18zM395.3 867.53a2.49 2.49 0 0 1-1.15-0.28 278.71 278.71 0 0 1-25.82-15.32 2.5 2.5 0 1 1 2.78-4.16 273.93 273.93 0 0 0 25.35 15 2.5 2.5 0 0 1-1.16 4.72z m254.24-15.39a2.5 2.5 0 0 1-1.39-4.58 292.84 292.84 0 0 0 23.64-17.65 2.5 2.5 0 1 1 3.19 3.85 297.92 297.92 0 0 1-24 18 2.49 2.49 0 0 1-1.44 0.38z m-303.68-17.56a2.49 2.49 0 0 1-1.59-0.57c-7.6-6.27-15.06-13.06-22.19-20.18a2.5 2.5 0 0 1 3.53-3.54c7 7 14.36 13.69 21.84 19.86a2.5 2.5 0 0 1-1.59 4.43z m349.51-20.29a2.5 2.5 0 0 1-1.77-4.29c6.86-6.87 13.56-14.21 19.92-21.81a2.5 2.5 0 0 1 3.84 3.21 336.97 336.97 0 0 1-20.22 22.14 2.49 2.49 0 0 1-1.77 0.75zM303.76 792.6a2.49 2.49 0 0 1-1.92-0.89 360.628 360.628 0 0 1-18.26-23.76 2.5 2.5 0 0 1 4.09-2.88c5.71 8.1 11.77 16 18 23.43a2.5 2.5 0 0 1-1.92 4.11z m429.79-23.91a2.5 2.5 0 0 1-2-3.94c5.6-8 11-16.32 16-24.84a2.5 2.5 0 0 1 4.3 2.55c-5.11 8.64-10.58 17.1-16.25 25.17a2.5 2.5 0 0 1-2.06 1.06zM269.45 744a2.5 2.5 0 0 1-2.15-1.23c-5-8.49-9.84-17.34-14.29-26.32a2.5 2.5 0 0 1 4.48-2.22c4.4 8.87 9.15 17.61 14.12 26a2.5 2.5 0 0 1-2.15 3.78z m494.42-26.5a2.5 2.5 0 0 1-2.24-3.61 403.95 403.95 0 0 0 12.15-27 2.5 2.5 0 0 1 4.63 1.89c-3.78 9.26-7.92 18.45-12.3 27.3a2.5 2.5 0 0 1-2.24 1.43zM243 690.73a2.5 2.5 0 0 1-2.31-1.55c-3.75-9.15-7.24-18.6-10.38-28.08a2.5 2.5 0 1 1 4.75-1.57c3.1 9.38 6.55 18.72 10.26 27.76a2.5 2.5 0 0 1-2.31 3.45z m543.4-28.29a2.5 2.5 0 0 1-2.37-3.28c3.06-9.28 5.86-18.84 8.33-28.41a2.5 2.5 0 1 1 4.84 1.25 449.99 449.99 0 0 1-8.42 28.73 2.5 2.5 0 0 1-2.39 1.71z m-562.12-28.2a2.5 2.5 0 0 1-2.42-1.88 462.75 462.75 0 0 1-6.53-29.21 2.5 2.5 0 1 1 4.91-0.93c1.84 9.7 4 19.42 6.46 28.89a2.5 2.5 0 0 1-2.42 3.13z m577-29.43a2.5 2.5 0 0 1-2.46-3c1.82-9.62 3.36-19.46 4.57-29.25a2.5 2.5 0 0 1 5 0.62 473.69 473.69 0 0 1-4.62 29.57 2.5 2.5 0 0 1-2.53 2.07z m-588.08-29a2.5 2.5 0 0 1-2.48-2.19c-1.23-9.83-2.16-19.85-2.77-29.79a2.5 2.5 0 0 1 5-0.31c0.61 9.84 1.53 19.76 2.75 29.48a2.5 2.5 0 0 1-2.17 2.79z m595.41-30h-0.15a2.5 2.5 0 0 1-2.34-2.65c0.6-9.78 0.9-19.74 0.9-29.6v-0.76a2.5 2.5 0 0 1 2.5-2.5 2.5 2.5 0 0 1 2.5 2.5v0.77c0 10-0.31 20-0.91 29.9a2.5 2.5 0 0 1-2.54 2.29z m-599.1-29.37a2.5 2.5 0 0 1-2.5-2.5v-0.38c0-9.83 0.3-19.77 0.89-29.52a2.5 2.5 0 0 1 5 0.3c-0.58 9.66-0.88 19.49-0.88 29.22v0.38a2.5 2.5 0 0 1-2.55 2.45z m599-30.9a2.5 2.5 0 0 1-2.49-2.34c-0.62-9.84-1.55-19.76-2.77-29.48a2.5 2.5 0 0 1 5-0.62c1.23 9.82 2.18 19.85 2.8 29.79a2.5 2.5 0 0 1-2.34 2.65zM213.07 457h-0.31a2.5 2.5 0 0 1-2.18-2.79c1.22-9.9 2.76-19.85 4.59-29.57a2.5 2.5 0 1 1 4.91 0.92c-1.81 9.62-3.34 19.47-4.55 29.26a2.5 2.5 0 0 1-2.46 2.18z m588-30.54a2.5 2.5 0 0 1-2.45-2c-1.85-9.69-4-19.41-6.49-28.89a2.5 2.5 0 0 1 4.84-1.25c2.48 9.58 4.69 19.41 6.56 29.2a2.5 2.5 0 0 1-2.46 3z m-577-27.94a2.5 2.5 0 0 1-2.42-3.12c2.48-9.67 5.31-19.34 8.4-28.73a2.5 2.5 0 1 1 4.75 1.56c-3.06 9.29-5.85 18.85-8.3 28.41a2.5 2.5 0 0 1-2.41 1.88z m562.06-29.66a2.5 2.5 0 0 1-2.37-1.71 428.94 428.94 0 0 0-10.28-27.75 2.5 2.5 0 0 1 4.63-1.9c3.75 9.14 7.25 18.59 10.4 28.08a2.5 2.5 0 0 1-2.37 3.29zM242.7 342a2.5 2.5 0 0 1-2.31-3.44c3.78-9.27 7.91-18.46 12.28-27.31a2.5 2.5 0 0 1 4.48 2.21c-4.32 8.75-8.4 17.83-12.13 27a2.5 2.5 0 0 1-2.32 1.54z m520.83-28.18a2.5 2.5 0 0 1-2.24-1.39c-4.4-8.86-9.16-17.6-14.14-26a2.5 2.5 0 1 1 4.3-2.55c5 8.48 9.86 17.33 14.32 26.31a2.5 2.5 0 0 1-2.24 3.61z m-494.47-25.15a2.5 2.5 0 0 1-2.15-3.77c5.1-8.64 10.56-17.11 16.23-25.19a2.5 2.5 0 1 1 4.09 2.87c-5.59 8-11 16.33-16 24.86a2.5 2.5 0 0 1-2.17 1.23z m464-26a2.5 2.5 0 0 1-2-1.06c-5.72-8.09-11.79-16-18-23.42a2.5 2.5 0 1 1 3.83-3.21c6.34 7.55 12.49 15.54 18.29 23.75a2.5 2.5 0 0 1-2 3.94zM303.26 240a2.5 2.5 0 0 1-1.92-4.1c6.45-7.73 13.24-15.19 20.19-22.16a2.5 2.5 0 0 1 3.54 3.53 332.698 332.698 0 0 0-19.89 21.84 2.49 2.49 0 0 1-1.92 0.89z m391.57-22.8a2.49 2.49 0 0 1-1.76-0.73c-7-7-14.38-13.67-21.86-19.84a2.5 2.5 0 1 1 3.18-3.86c7.6 6.26 15.08 13 22.21 20.15a2.5 2.5 0 0 1-1.76 4.27z m-349.56-19.27a2.5 2.5 0 0 1-1.6-4.42 298.34 298.34 0 0 1 24-18 2.5 2.5 0 1 1 2.79 4.15 293.24 293.24 0 0 0-23.61 17.68 2.49 2.49 0 0 1-1.58 0.59z m303.63-18.47a2.49 2.49 0 0 1-1.38-0.42 273.54 273.54 0 0 0-25.37-15 2.5 2.5 0 0 1 2.31-4.44 278.55 278.55 0 0 1 25.84 15.28 2.5 2.5 0 0 1-1.39 4.58z m-254.27-14.61a2.5 2.5 0 0 1-1.16-4.71 263.52 263.52 0 0 1 27.33-12.44 2.5 2.5 0 1 1 1.8 4.66 258.54 258.54 0 0 0-26.81 12.2 2.49 2.49 0 0 1-1.16 0.29z m201.54-12.73a2.49 2.49 0 0 1-0.89-0.17 246.28 246.28 0 0 0-28.08-8.84 2.5 2.5 0 1 1 1.21-4.85 251.13 251.13 0 0 1 28.65 9 2.5 2.5 0 0 1-0.89 4.84zM450 143.47a2.5 2.5 0 0 1-0.61-4.92 244.79 244.79 0 0 1 29.51-5.61 2.5 2.5 0 0 1 0.63 5 239.83 239.83 0 0 0-28.9 5.5 2.5 2.5 0 0 1-0.63 0.03z m88.55-5.69h-0.31a239 239 0 0 0-28.8-1.75h-0.57a2.5 2.5 0 0 1 0-5h0.58a243.89 243.89 0 0 1 29.41 1.78 2.5 2.5 0 0 1-0.3 5z" fill="#66A9F7" /><path d="M631.34 234.13a57.26 57.26 0 0 1-51.49-51.25 57.26 57.26 0 0 1-51.49 51.25 57.26 57.26 0 0 1 51.49 51.25 57.26 57.26 0 0 1 51.49-51.25z" fill="#DFEDFF" /><path d="M579.85 292.88a7.5 7.5 0 0 1-7.46-6.76 49.76 49.76 0 0 0-44.74-44.53 7.5 7.5 0 0 1 0-14.93 49.76 49.76 0 0 0 44.74-44.52 7.5 7.5 0 0 1 14.93 0A49.76 49.76 0 0 0 632 226.67a7.5 7.5 0 0 1 0 14.93 49.76 49.76 0 0 0-44.74 44.53 7.5 7.5 0 0 1-7.41 6.75z m-26.22-58.75a65.1 65.1 0 0 1 26.22 26.19 65.1 65.1 0 0 1 26.22-26.19 65.1 65.1 0 0 1-26.22-26.19 65.1 65.1 0 0 1-26.22 26.19z" fill="#66A9F7" /><path d="M742.47 344.56a82 82 0 0 1-73.77-73.42 82 82 0 0 1-73.77 73.42A82 82 0 0 1 668.7 418a82 82 0 0 1 73.77-73.44z" fill="#DFEDFF" /><path d="M668.7 425.48a7.5 7.5 0 0 1-7.46-6.76 74.54 74.54 0 0 0-67-66.69 7.5 7.5 0 0 1 0-14.93 74.54 74.54 0 0 0 67-66.69 7.5 7.5 0 0 1 14.93 0 74.54 74.54 0 0 0 67 66.69 7.5 7.5 0 0 1 0 14.93 74.54 74.54 0 0 0-67 66.69 7.5 7.5 0 0 1-7.47 6.76z m-44.87-80.92a89.9 89.9 0 0 1 44.87 44.82 89.91 89.91 0 0 1 44.87-44.82 89.9 89.9 0 0 1-44.87-44.81 89.9 89.9 0 0 1-44.86 44.81z" fill="#66A9F7" /></svg>