<?xml version="1.0" encoding="utf-8"?>
<!-- Uploaded to: SVG Repo, www.svgrepo.com, Generator: SVG Repo Mixer Tools -->
<svg width="800px" height="800px" viewBox="0 0 1024 1024" class="icon"  version="1.1" xmlns="http://www.w3.org/2000/svg"><path d="M515.74 283.66c-164.25 0-297.4 29.57-297.4 66v0.4a16.84 16.84 0 0 0 0.16 2.51l79.87 544.91a16.62 16.62 0 0 0 2 5.84c4.69 25.52 99.41 45.89 215.59 45.89 118.11 0 214-21.05 215.75-47.16a16.66 16.66 0 0 0 1.36-4.56L813 352.62a16.85 16.85 0 0 0 0.16-2.51v-0.4c-0.02-36.48-133.16-66.05-297.42-66.05z" fill="#DFEDFF" /><path d="M218.34 349.7a297.4 66.04 0 1 0 594.8 0 297.4 66.04 0 1 0-594.8 0Z" fill="#FFFFFF" /><path d="M516 956.75c-56.59 0-110.28-4.81-151.17-13.54-43.5-9.29-67.54-21.8-71.51-37.21a24 24 0 0 1-2.34-7.39L211.09 353.7a24 24 0 0 1-0.24-3.36v-0.64c0-22.14 31.28-40.32 93-54 56.69-12.59 132-19.52 211.92-19.52s155.23 6.91 211.89 19.5c61.7 13.7 93 31.87 93 54v0.66a23.83 23.83 0 0 1-0.24 3.34l-79.91 544.93a24.11 24.11 0 0 1-1.45 5.39c-2.31 16.08-25.82 29.13-70 38.79-41.06 9-95.47 13.96-153.06 13.96zM225.84 349.52v0.61a9.53 9.53 0 0 0 0.08 1.4l79.87 544.9a9.11 9.11 0 0 0 1.11 3.21l0.63 1.11 0.23 1.25c1 5.29 14.74 16.83 60.17 26.53 39.89 8.52 92.47 13.21 148 13.21 56.56 0 109.81-4.84 149.92-13.62 56.78-12.43 58.3-26 58.34-26.53l0.09-1.39 0.58-1.26a9.22 9.22 0 0 0 0.75-2.51l79.87-544.91a9.45 9.45 0 0 0 0.08-1.4v-0.24-0.37c-0.26-9.86-21.64-26-81.23-39.19-55.58-12.32-129.68-19.16-208.59-19.16s-153 6.81-208.67 19.16c-59.61 13.24-80.99 29.34-81.23 39.2z m-15 1z" fill="#66A9F7" /><path d="M371.24 289.36a142.45 31.63 0 1 0 284.9 0 142.45 31.63 0 1 0-284.9 0Z" fill="#FFFFFF" /><path d="M513.69 328.49c-38.58 0-74.93-3.35-102.35-9.44-32-7.11-47.6-16.82-47.6-29.69s15.57-22.58 47.6-29.69c27.42-6.09 63.77-9.44 102.35-9.44s74.93 3.35 102.35 9.44c32 7.11 47.6 16.82 47.6 29.69S648.07 311.94 616 319c-27.38 6.14-63.73 9.49-102.31 9.49zM378.74 289.4s3.09 8 37.87 15.44c26.15 5.58 60.63 8.65 97.08 8.65s70.93-3.07 97.08-8.65c33.46-7.13 37.57-14.83 37.85-15.48-0.28-0.65-4.39-8.35-37.85-15.48-26.15-5.58-60.63-8.65-97.08-8.65s-70.93 3.07-97.08 8.65c-34.79 7.42-37.85 15.45-37.87 15.53z m269.9 0z" fill="#66A9F7" /><path d="M541.93 271.64l1.76-146.79c0-2.08-0.85-3.93-1.84-3.93h-56.32c-1 0-1.87 1.85-1.84 3.93l1.76 146.79c0 0.48 0 0.93 0.08 1.36a6 6 0 0 0-0.06 0.8c0 7.12 12.65 12.89 28.25 12.89S542 280.92 542 273.8a6 6 0 0 0-0.1-1.06c0.01-0.35 0.03-0.74 0.03-1.1z" fill="#FFFFFF" /><path d="M513.72 294.19c-20.72 0-35.72-8.57-35.72-20.39v-0.82c0-0.28 0-0.84-0.05-1.26l-1.76-146.79a12.46 12.46 0 0 1 3.24-8.92 8.55 8.55 0 0 1 6.1-2.6h56.31a8.54 8.54 0 0 1 6.1 2.6 12.46 12.46 0 0 1 3.24 8.92l-1.76 146.78v0.79c0 0.43 0.06 0.86 0.06 1.29-0.01 11.83-15.04 20.4-35.76 20.4zM493 273.55c1.3 1.79 8.6 5.65 20.7 5.65s19.34-3.82 20.68-5.62l-0.09-0.5 0.09-1v-0.5l1.71-143.13h-44.86l1.71 143.13v0.62l0.1 0.92z m41.47 0.52z" fill="#66A9F7" /><path d="M624.36 88.77c-20.29-8.93-60-15-105.63-15-66.28 0-120 12.79-120 28.57s53.73 28.57 120 28.57c43.42 0 81.44-5.49 102.52-13.71h55.2v16.66h42V98.77a10 10 0 0 0-10-10z" fill="#FFFFFF" /><path d="M718.47 141.36h-42a7.5 7.5 0 0 1-7.5-7.5v-9.16h-46.35c-23 8.6-61.66 13.71-103.9 13.71-47.36 0-127.51-7.6-127.51-36.07 0-11.95 13.38-20.94 40.91-27.5 23.22-5.53 54-8.57 86.6-8.57 44.11 0 84.9 5.73 107.17 15h82.57A17.52 17.52 0 0 1 726 98.77v35.09a7.5 7.5 0 0 1-7.53 7.5z m-34.52-15h27V98.77a2.5 2.5 0 0 0-2.5-2.5h-84.09a7.5 7.5 0 0 1-3-0.64c-20.13-8.86-59.45-14.36-102.61-14.36-30.24 0-58.92 2.7-80.76 7.62-24.1 5.42-31.08 11.57-31.74 13.45 0.66 1.88 7.64 8 31.74 13.45 21.84 4.91 50.52 7.62 80.76 7.62 40.69 0 78.93-5.06 99.79-13.2a7.5 7.5 0 0 1 2.73-0.51h55.2a7.5 7.5 0 0 1 7.5 7.5zM807.07 365.53a2.5 2.5 0 0 1-1.84-4.2c3.58-3.88 5.4-7.8 5.4-11.64a2.5 2.5 0 1 1 5 0c0 5.14-2.26 10.19-6.73 15a2.49 2.49 0 0 1-1.83 0.84zM530 418.16a2.5 2.5 0 0 1 0-5c9.52-0.1 19.12-0.3 28.54-0.6h0.08a2.5 2.5 0 0 1 0.08 5c-9.45 0.3-19.08 0.51-28.64 0.61z m-28.59 0c-9.56-0.1-19.2-0.31-28.64-0.61a2.5 2.5 0 1 1 0.16-5c9.41 0.3 19 0.51 28.54 0.61a2.5 2.5 0 0 1 0 5z m85.75-1.84a2.5 2.5 0 0 1-0.13-5c9.58-0.52 19.16-1.16 28.47-1.9a2.5 2.5 0 1 1 0.39 5c-9.35 0.74-19 1.38-28.59 1.91z m-142.91 0h-0.14c-9.63-0.53-19.25-1.17-28.59-1.91a2.5 2.5 0 1 1 0.39-5c9.3 0.74 18.88 1.38 28.47 1.9a2.5 2.5 0 0 1-0.13 5z m199.91-4.54a2.5 2.5 0 0 1-0.26-5c9.66-1 19.19-2.19 28.31-3.45a2.5 2.5 0 0 1 0.68 5 932.94 932.94 0 0 1-28.46 3.47z m-256.92 0H387c-9.71-1-19.29-2.2-28.46-3.47a2.5 2.5 0 1 1 0.68-5c9.12 1.26 18.65 2.42 28.31 3.45a2.5 2.5 0 0 1-0.26 5z m313.56-7.87a2.5 2.5 0 0 1-0.43-5c9.8-1.73 19.19-3.62 27.92-5.61a2.5 2.5 0 0 1 1.11 4.88c-8.81 2-18.28 3.91-28.16 5.66a2.54 2.54 0 0 1-0.45 0.06z m-370.2 0a2.54 2.54 0 0 1-0.44 0c-9.88-1.75-19.35-3.65-28.16-5.66a2.5 2.5 0 1 1 1.11-4.87c8.73 2 18.12 3.88 27.91 5.61a2.5 2.5 0 0 1-0.43 5zM756.48 391a2.5 2.5 0 0 1-0.73-4.89 218.6 218.6 0 0 0 26.5-9.79 2.5 2.5 0 1 1 2.07 4.55 223.41 223.41 0 0 1-27.11 10 2.49 2.49 0 0 1-0.73 0.13z m-481.57 0a2.5 2.5 0 0 1-0.73-0.11 223.06 223.06 0 0 1-27.11-10 2.5 2.5 0 1 1 2.08-4.55 218.24 218.24 0 0 0 26.49 9.8 2.5 2.5 0 0 1-0.73 4.89zM224.4 365.53a2.49 2.49 0 0 1-1.84-0.8c-4.46-4.83-6.73-9.89-6.73-15a2.5 2.5 0 0 1 5 0c0 3.84 1.82 7.76 5.4 11.64a2.5 2.5 0 0 1-1.84 4.2z" fill="#66A9F7" /><path d="M723.35 210.51a25.15 25.15 0 0 1-50.3 0c0-13.89 25.15-42.15 25.15-42.15s25.15 28.26 25.15 42.15z" fill="#DFEDFF" /><path d="M698.21 243.16a32.68 32.68 0 0 1-32.65-32.65c0-15.94 22.53-42.06 27-47.14a7.5 7.5 0 0 1 11.21 0c4.52 5.08 27 31.2 27 47.14a32.68 32.68 0 0 1-32.56 32.65z m0-63.15c-8.47 10.61-17.66 24.4-17.66 30.51a17.65 17.65 0 0 0 35.29 0c0.01-5.69-8.36-18.97-17.62-30.52z" fill="#66A9F7" /></svg>