<?xml version="1.0" encoding="utf-8"?>
<!-- Uploaded to: SVG Repo, www.svgrepo.com, Generator: SVG Repo Mixer Tools -->
<svg width="800px" height="800px" viewBox="0 0 1024 1024" class="icon"  version="1.1" xmlns="http://www.w3.org/2000/svg"><path d="M465.63 268.11a7.5 7.5 0 0 1-7.5-7.5V118.53a52.5 52.5 0 0 1 105 0 7.5 7.5 0 1 1-15 0 37.5 37.5 0 0 0-75 0v142.08a7.5 7.5 0 0 1-7.5 7.5z" fill="#66A9F7" /><path d="M289.78 298.6a24.36 24.36 0 0 1-24.36-24.36 24.36 24.36 0 0 1 24.36-24.36h454.27a24.36 24.36 0 0 1 24.36 24.36 24.36 24.36 0 0 1-24.36 24.36" fill="#FFFFFF" /><path d="M744.05 306.1a7.5 7.5 0 0 1 0-15 16.86 16.86 0 1 0 0-33.72H289.78a16.86 16.86 0 1 0 0 33.72 7.5 7.5 0 0 1 0 15 31.86 31.86 0 1 1 0-63.72h454.27a31.86 31.86 0 1 1 0 63.72z" fill="#66A9F7" /><path d="M741.91 298.78c0 110.92-100.74 200.84-225 200.84s-225-89.92-225-200.84" fill="#DFEDFF" /><path d="M516.91 507.13c-61.94 0-120.22-21.57-164.09-60.73-44.11-39.38-68.41-91.8-68.41-147.61a7.5 7.5 0 0 1 15 0c0 106.61 97.57 193.34 217.5 193.34s217.5-86.73 217.5-193.34a7.5 7.5 0 0 1 15 0c0 55.81-24.29 108.21-68.41 147.61-43.87 39.16-102.14 60.73-164.09 60.73zM882.12 960.39a47.5 47.5 0 0 1 0-95 7.5 7.5 0 0 1 0 15 32.5 32.5 0 0 0 0 65 7.5 7.5 0 0 1 0 15zM145 960.39a7.5 7.5 0 0 1 0-15 32.5 32.5 0 1 0 0-65 7.5 7.5 0 0 1 0-15 47.5 47.5 0 1 1 0 95z" fill="#66A9F7" /><path d="M74.91 546h880v297.1a30 30 0 0 1-30 30h-820a30 30 0 0 1-30-30V546z" fill="#DFEDFF" /><path d="M924.91 880.6h-820a37.54 37.54 0 0 1-37.5-37.5V546a7.5 7.5 0 0 1 7.5-7.5h880a7.5 7.5 0 0 1 7.5 7.5v297.1a37.54 37.54 0 0 1-37.5 37.5zM82.41 553.52V843.1a22.53 22.53 0 0 0 22.5 22.5h820a22.53 22.53 0 0 0 22.5-22.5V553.52z" fill="#66A9F7" /><path d="M104.26 398.62H925a30 30 0 0 1 30 30v120H74.26v-120a30 30 0 0 1 30-30z" fill="#FFFFFF" /><path d="M955 556.12H74.26a7.5 7.5 0 0 1-7.5-7.5v-120a37.54 37.54 0 0 1 37.5-37.5H925a37.54 37.54 0 0 1 37.5 37.5v120a7.5 7.5 0 0 1-7.5 7.5z m-873.22-15h865.69v-112.5a22.53 22.53 0 0 0-22.5-22.5H104.26a22.53 22.53 0 0 0-22.5 22.5z" fill="#66A9F7" /><path d="M515.57 418.75a2.5 2.5 0 0 1-2.5-2.5v-15a2.5 2.5 0 0 1 5 0v15a2.5 2.5 0 0 1-2.5 2.5zM515.57 831.14a2.5 2.5 0 0 1-2.5-2.5v-29.45a2.5 2.5 0 0 1 5 0v29.46a2.5 2.5 0 0 1-2.5 2.49z m0-58.91a2.5 2.5 0 0 1-2.5-2.5v-29.46a2.5 2.5 0 0 1 5 0v29.46a2.5 2.5 0 0 1-2.5 2.5z m0-58.91a2.5 2.5 0 0 1-2.5-2.5v-29.46a2.5 2.5 0 0 1 5 0v29.46a2.5 2.5 0 0 1-2.5 2.5z m0-58.91a2.5 2.5 0 0 1-2.5-2.5v-29.46a2.5 2.5 0 0 1 5 0v29.45a2.5 2.5 0 0 1-2.5 2.5z m0-58.91a2.5 2.5 0 0 1-2.5-2.5v-29.47a2.5 2.5 0 0 1 5 0V593a2.5 2.5 0 0 1-2.5 2.49z m0-58.91a2.5 2.5 0 0 1-2.5-2.5v-29.47a2.5 2.5 0 0 1 5 0v29.46a2.5 2.5 0 0 1-2.5 2.5z m0-58.91a2.5 2.5 0 0 1-2.5-2.5v-29.47a2.5 2.5 0 1 1 5 0v29.46a2.5 2.5 0 0 1-2.5 2.49zM515.57 875.6a2.5 2.5 0 0 1-2.5-2.5v-15a2.5 2.5 0 0 1 5 0v15a2.5 2.5 0 0 1-2.5 2.5z" fill="#66A9F7" /><path d="M438.4 683.23m-20 0a20 20 0 1 0 40 0 20 20 0 1 0-40 0Z" fill="#FFFFFF" /><path d="M438.4 710.73a27.5 27.5 0 1 1 27.5-27.5 27.53 27.53 0 0 1-27.5 27.5z m0-40a12.5 12.5 0 1 0 12.5 12.5 12.51 12.51 0 0 0-12.5-12.5z" fill="#66A9F7" /><path d="M586.83 683.23m-20 0a20 20 0 1 0 40 0 20 20 0 1 0-40 0Z" fill="#FFFFFF" /><path d="M586.83 710.73a27.5 27.5 0 1 1 27.5-27.5 27.53 27.53 0 0 1-27.5 27.5z m0-40a12.5 12.5 0 1 0 12.5 12.5 12.51 12.51 0 0 0-12.5-12.5z" fill="#66A9F7" /><path d="M295 473.62m-20 0a20 20 0 1 0 40 0 20 20 0 1 0-40 0Z" fill="#FFFFFF" /><path d="M295 501.12a27.5 27.5 0 1 1 27.5-27.5 27.53 27.53 0 0 1-27.5 27.5z m0-40a12.5 12.5 0 1 0 12.5 12.5 12.51 12.51 0 0 0-12.5-12.5z" fill="#66A9F7" /><path d="M734.23 473.62m-20 0a20 20 0 1 0 40 0 20 20 0 1 0-40 0Z" fill="#FFFFFF" /><path d="M734.23 501.12a27.5 27.5 0 1 1 27.5-27.5 27.53 27.53 0 0 1-27.5 27.5z m0-40a12.5 12.5 0 1 0 12.5 12.5 12.51 12.51 0 0 0-12.5-12.5zM275.7 256.85a2.5 2.5 0 0 1-1.45-4.54 26.69 26.69 0 0 1 15.52-4.94 2.5 2.5 0 0 1 0 5 21.71 21.71 0 0 0-12.63 4 2.49 2.49 0 0 1-1.44 0.48zM714.4 301.1H684a2.5 2.5 0 0 1 0-5h30.4a2.5 2.5 0 0 1 0 5z m-60.77 0h-30.38a2.5 2.5 0 0 1 0-5h30.38a2.5 2.5 0 0 1 0 5z m-60.77 0h-30.38a2.5 2.5 0 0 1 0-5h30.38a2.5 2.5 0 0 1 0 5z m-60.77 0h-30.38a2.5 2.5 0 0 1 0-5h30.39a2.5 2.5 0 0 1 0 5z m-60.77 0h-30.38a2.5 2.5 0 0 1 0-5h30.38a2.5 2.5 0 0 1 0 5z m-60.77 0h-30.38a2.5 2.5 0 0 1 0-5h30.38a2.5 2.5 0 0 1 0 5z m-60.77 0H319.4a2.5 2.5 0 0 1 0-5h30.38a2.5 2.5 0 0 1 0 5z m395 0a2.5 2.5 0 0 1-0.07-5A21.82 21.82 0 0 0 765 280.57a2.5 2.5 0 1 1 4.79 1.45 26.82 26.82 0 0 1-24.91 19.07z m-455.77 0h-0.08a26.82 26.82 0 0 1-24.88-19.1 2.5 2.5 0 0 1 4.79-1.44 21.83 21.83 0 0 0 20.26 15.54 2.5 2.5 0 0 1-0.07 5zM758.12 256.85a2.49 2.49 0 0 1-1.44-0.46 21.71 21.71 0 0 0-12.63-4 2.5 2.5 0 0 1 0-5 26.69 26.69 0 0 1 15.52 4.94 2.5 2.5 0 0 1-1.45 4.54zM556.23 198.79a22.53 22.53 0 0 1-22.5-22.5c0-3.28 1.62-12.94 16.65-31.69a7.5 7.5 0 0 1 11.71 0c15 18.75 16.65 28.41 16.65 31.69a22.53 22.53 0 0 1-22.51 22.5z m0-36.85c-4.27 6.3-7.43 12.2-7.5 14.36a7.5 7.5 0 0 0 15 0c-0.07-2.18-3.24-8.08-7.5-14.37z" fill="#66A9F7" /></svg>