<?xml version="1.0" encoding="utf-8"?>
<!-- Uploaded to: SVG Repo, www.svgrepo.com, Generator: SVG Repo Mixer Tools -->
<svg width="800px" height="800px" viewBox="0 0 1024 1024" class="icon"  version="1.1" xmlns="http://www.w3.org/2000/svg"><path d="M238.18 123.01l48.62 0 0 77.35-48.62 0 0-77.35Z" fill="#DFEDFF" /><path d="M268.08 207.86H256.9a26.25 26.25 0 0 1-26.22-26.22v-39.91a26.25 26.25 0 0 1 26.22-26.22h11.17a26.25 26.25 0 0 1 26.22 26.22v39.91a26.25 26.25 0 0 1-26.21 26.22z m-11.18-77.35a11.24 11.24 0 0 0-11.22 11.22v39.91a11.24 11.24 0 0 0 11.22 11.22h11.17a11.24 11.24 0 0 0 11.22-11.22v-39.91a11.24 11.24 0 0 0-11.22-11.22z" fill="#66A9F7" /><path d="M268.46 73.02l500 0 0 434-500 0 0-434Z" fill="#DFEDFF" /><path d="M738.46 514.52h-440A37.54 37.54 0 0 1 261 477V103a37.54 37.54 0 0 1 37.5-37.5h440A37.54 37.54 0 0 1 776 103v374a37.54 37.54 0 0 1-37.54 37.52z m-440-434A22.53 22.53 0 0 0 276 103v374a22.53 22.53 0 0 0 22.5 22.5h440A22.53 22.53 0 0 0 761 477V103a22.53 22.53 0 0 0-22.5-22.5z" fill="#66A9F7" /><path d="M765 902c1.89 16.39-10.06 29.8-26.56 29.8h-440c-16.5 0-28.45-13.41-26.56-29.8l43.17-374.39c1.89-16.39 16.94-29.8 33.44-29.8h339.92c16.5 0 31.55 13.41 33.44 29.8z" fill="#DFEDFF" /><path d="M738.46 939.29h-440a33.68 33.68 0 0 1-34-38.16l43.17-374.39c2.32-20.09 20.66-36.44 40.89-36.44h339.89c20.23 0 38.57 16.35 40.89 36.44l43.17 374.39a33.68 33.68 0 0 1-34 38.16z m-390-434c-12.64 0-24.54 10.61-26 23.16l-43.11 374.39a18.69 18.69 0 0 0 19.11 21.44h440a18.69 18.69 0 0 0 19.11-21.44L714.4 528.45c-1.45-12.56-13.35-23.16-26-23.16z" fill="#66A9F7" /><path d="M206.46 451.64a25 25 0 0 1-25-25 25 25 0 0 1 25-25h624a25 25 0 0 1 25 25 25 25 0 0 1-25 25" fill="#FFFFFF" /><path d="M830.46 459.14a7.5 7.5 0 0 1 0-15 17.5 17.5 0 0 0 0-35h-624a17.5 17.5 0 0 0 0 35 7.5 7.5 0 1 1 0 15 32.5 32.5 0 0 1 0-65h624a32.5 32.5 0 0 1 0 65z" fill="#66A9F7" /><path d="M830.46 451.85c0 153.81-139.69 278.5-312 278.5s-312-124.69-312-278.5" fill="#DFEDFF" /><path d="M518.46 737.86c-85.18 0-165.31-29.65-225.61-83.48-60.54-54-93.89-126-93.89-202.53a7.5 7.5 0 0 1 15 0c0 72.23 31.56 140.18 88.88 191.34 57.55 51.37 134.13 79.67 215.62 79.67s158.07-28.29 215.62-79.67C791.4 592 823 524.08 823 451.85a7.5 7.5 0 0 1 15 0c0 76.56-33.34 148.48-93.89 202.53-60.34 53.83-140.47 83.48-225.65 83.48zM192.34 408.51a2.5 2.5 0 0 1-1.42-4.56 27.35 27.35 0 0 1 15.53-4.81 2.5 2.5 0 1 1 0 5 22.37 22.37 0 0 0-12.71 3.93 2.48 2.48 0 0 1-1.4 0.44z" fill="#66A9F7" /><path d="M803.84 454.14h-30a2.5 2.5 0 0 1 0-5h30a2.5 2.5 0 0 1 0 5z m-60.08 0h-30a2.5 2.5 0 0 1 0-5h30a2.5 2.5 0 0 1 0 5z m-60.08 0h-30a2.5 2.5 0 0 1 0-5h30a2.5 2.5 0 0 1 0 5z m-60.08 0h-30a2.5 2.5 0 0 1 0-5h30a2.5 2.5 0 0 1 0 5z m-60.08 0h-30a2.5 2.5 0 0 1 0-5h30a2.5 2.5 0 0 1 0 5z m-60.08 0h-30a2.5 2.5 0 0 1 0-5h30a2.5 2.5 0 0 1 0 5z m-60.08 0h-30a2.5 2.5 0 0 1 0-5h30a2.5 2.5 0 0 1 0 5z m-60.08 0h-30a2.5 2.5 0 0 1 0-5h30a2.5 2.5 0 0 1 0 5z m-60.08 0h-30a2.5 2.5 0 0 1 0-5h30a2.5 2.5 0 0 1 0 5z m-60.08 0h-30a2.5 2.5 0 1 1 0-5h30a2.5 2.5 0 0 1 0 5z m570.77-0.23a2.5 2.5 0 0 1-0.33-5 22.6 22.6 0 0 0 18.82-17.1 2.5 2.5 0 1 1 4.87 1.15 27.63 27.63 0 0 1-23 20.91z m-630.84 0h-0.34a27.63 27.63 0 0 1-23-20.93 2.5 2.5 0 1 1 4.87-1.14 22.6 22.6 0 0 0 18.81 17.12 2.5 2.5 0 0 1-0.34 5zM844.58 408.51a2.48 2.48 0 0 1-1.41-0.44 22.37 22.37 0 0 0-12.71-3.93 2.5 2.5 0 0 1 0-5 27.35 27.35 0 0 1 15.54 4.8 2.5 2.5 0 0 1-1.42 4.56z" fill="#66A9F7" /></svg>