<?xml version="1.0" encoding="utf-8"?>
<!-- Uploaded to: SVG Repo, www.svgrepo.com, Generator: SVG Repo Mixer Tools -->
<svg width="800px" height="800px" viewBox="0 0 1024 1024" class="icon"  version="1.1" xmlns="http://www.w3.org/2000/svg"><path d="M947.44 556.28c0-138.07-111.93-250-250-250q-3.44 0-6.85 0.1c-1.56-0.06-3.12-0.1-4.7-0.1H192.53a125 125 0 0 0-125 125 125 125 0 0 0 125 125h254.91v1.46H192.53a125 125 0 0 0-125 125 125 125 0 0 0 125 125H685.9a125.85 125.85 0 0 0 20.16-1.63c134.08-4.53 241.38-114.64 241.38-249.83z" fill="#DFEDFF" /><path d="M685.9 815.25H192.53c-73.06 0-132.5-59.44-132.5-132.5A132.73 132.73 0 0 1 150.69 557 132.73 132.73 0 0 1 60 431.28c0-73.06 59.44-132.5 132.5-132.5h493.4c1.45 0 3 0 4.73 0.09 2.4-0.06 4.63-0.09 6.81-0.09a257.49 257.49 0 0 1 9.34 514.82 133.81 133.81 0 0 1-20.88 1.65z m-493.37-250a117.5 117.5 0 1 0 0 235H685.9a118.83 118.83 0 0 0 19-1.53 7.5 7.5 0 0 1 0.95-0.09 242.49 242.49 0 0 0-8.36-484.84c-2.12 0-4.29 0-6.65 0.09h-0.48c-1.69-0.06-3.1-0.09-4.42-0.09H192.53a117.5 117.5 0 1 0 0 235h254.91a7.5 7.5 0 0 1 7.5 7.5V557.7a7.5 7.5 0 0 1-7.5 7.54z" fill="#66A9F7" /><path d="M664.38 565.27h-223a8.25 8.25 0 0 1 0-16.5h223a8.25 8.25 0 1 1 0 16.5z" fill="#66A9F7" /><path d="M665.39 431.2a62.5 62.5 0 0 1 0 125" fill="#DFEDFF" /><path d="M665.39 563.7a7.5 7.5 0 0 1 0-15 55 55 0 0 0 0-110 7.5 7.5 0 0 1 0-15 70 70 0 0 1 0 140z" fill="#66A9F7" /><path d="M665.39 557.64a62.5 62.5 0 0 1 0 125" fill="#DFEDFF" /><path d="M665.39 690.14a7.5 7.5 0 0 1 0-15 55 55 0 0 0 0-110 7.5 7.5 0 0 1 0-15 70 70 0 0 1 0 140zM662.64 433.42h-15a2.5 2.5 0 0 1 0-5h15a2.5 2.5 0 0 1 0 5zM617 433.42h-30.69a2.5 2.5 0 0 1 0-5H617a2.5 2.5 0 0 1 0 5z m-61.33 0H525a2.5 2.5 0 0 1 0-5h30.67a2.5 2.5 0 0 1 0 5z m-61.33 0h-30.7a2.5 2.5 0 1 1 0-5h30.67a2.5 2.5 0 0 1 0 5z m-61.33 0h-30.7a2.5 2.5 0 0 1 0-5H433a2.5 2.5 0 0 1 0 5z m-61.33 0H341a2.5 2.5 0 1 1 0-5h30.67a2.5 2.5 0 0 1 0 5z m-61.33 0h-30.71a2.5 2.5 0 1 1 0-5h30.67a2.5 2.5 0 0 1 0 5z m-61.33 0h-30.71a2.5 2.5 0 0 1 0-5H249a2.5 2.5 0 0 1 0 5zM187.64 433.42h-15a2.5 2.5 0 0 1 0-5h15a2.5 2.5 0 1 1 0 5z" fill="#66A9F7" /><path d="M662.64 684.68h-15a2.5 2.5 0 0 1 0-5h15a2.5 2.5 0 0 1 0 5zM617 684.68h-30.69a2.5 2.5 0 1 1 0-5H617a2.5 2.5 0 0 1 0 5z m-61.33 0H525a2.5 2.5 0 1 1 0-5h30.67a2.5 2.5 0 0 1 0 5z m-61.33 0h-30.7a2.5 2.5 0 0 1 0-5h30.67a2.5 2.5 0 0 1 0 5z m-61.33 0h-30.7a2.5 2.5 0 1 1 0-5H433a2.5 2.5 0 1 1 0 5z m-61.33 0H341a2.5 2.5 0 0 1 0-5h30.67a2.5 2.5 0 1 1 0 5z m-61.33 0h-30.71a2.5 2.5 0 0 1 0-5h30.67a2.5 2.5 0 0 1 0 5z m-61.33 0h-30.71a2.5 2.5 0 0 1 0-5H249a2.5 2.5 0 0 1 0 5zM187.64 684.68h-15a2.5 2.5 0 1 1 0-5h15a2.5 2.5 0 0 1 0 5z" fill="#66A9F7" /></svg>