<?xml version="1.0" encoding="utf-8"?>
<!-- Uploaded to: SVG Repo, www.svgrepo.com, Generator: SVG Repo Mixer Tools -->
<svg width="800px" height="800px" viewBox="0 0 1024 1024" class="icon"  version="1.1" xmlns="http://www.w3.org/2000/svg"><path d="M724.38 121.82H659a2.63 2.63 0 0 0-2.61 2.66V264.4a2.63 2.63 0 0 1-2.61 2.66H379.49a2.63 2.63 0 0 1-2.61-2.66V127.87a6 6 0 0 0-6-6.06h-64.77a30.68 30.68 0 0 0-29.89 24.6l-39.81 190a2.64 2.64 0 0 0 2.56 3.21h552.55a2.64 2.64 0 0 0 2.56-3.21l-39.81-190a30.68 30.68 0 0 0-29.89-24.59z" fill="#DFEDFF" /><path d="M791.52 347.13H239a10.14 10.14 0 0 1-9.89-12.25l39.8-190a38.37 38.37 0 0 1 37.23-30.56h64.81a13.52 13.52 0 0 1 13.46 13.55v131.68h264.5V124.47A10.15 10.15 0 0 1 659 114.32h65.39a38.37 38.37 0 0 1 37.23 30.56l39.81 190a10.14 10.14 0 0 1-9.9 12.25z m-546.52-15h540.52L746.93 148a23.3 23.3 0 0 0-22.55-18.63h-60.5V264.4a10.15 10.15 0 0 1-10.11 10.16H379.49a10.15 10.15 0 0 1-10.11-10.16V129.32h-63.26A23.3 23.3 0 0 0 283.56 148z" fill="#66A9F7" /><path d="M792.53 362.87A27.51 27.51 0 0 0 764.75 333h-499A27.51 27.51 0 0 0 238 362.87l41.16 555.73c1.22 16.45 15.72 29.92 32.22 29.92h407.74c16.5 0 31-13.46 32.22-29.92z" fill="#DFEDFF" /><path d="M719.12 956H311.38c-20.38 0-38.19-16.54-39.7-36.86l-41.2-555.71a35 35 0 0 1 35.26-38h499a35 35 0 0 1 35.26 38l-7.48-0.55 7.48 0.55-41.18 555.73c-1.51 20.32-19.32 36.84-39.7 36.84zM265.75 340.45a20 20 0 0 0-20.3 21.86L286.64 918c0.92 12.45 12.25 23 24.74 23h407.74c12.49 0 23.82-10.52 24.74-23l41.19-555.73a20 20 0 0 0-20.3-21.86z" fill="#66A9F7" /><path d="M238.32 368.38c-12.75 0-23.08-10.6-23.08-23.68s10.33-23.68 23.08-23.68h553.85c12.75 0 23.08 10.6 23.08 23.68s-10.33 23.68-23.08 23.68" fill="#FFFFFF" /><path d="M792.17 375.88a7.5 7.5 0 0 1 0-15c8.59 0 15.58-7.26 15.58-16.18s-7-16.17-15.58-16.17H238.32c-8.59 0-15.58 7.26-15.58 16.17s7 16.18 15.58 16.18a7.5 7.5 0 0 1 0 15c-16.86 0-30.58-14-30.58-31.18s13.72-31.17 30.58-31.17h553.85c16.86 0 30.58 14 30.58 31.17s-13.75 31.18-30.58 31.18z" fill="#66A9F7" /><path d="M224.4 328.33a2.5 2.5 0 0 1-1.54-4.47 25 25 0 0 1 15.46-5.32 2.5 2.5 0 1 1 0 5 20 20 0 0 0-12.39 4.27 2.49 2.49 0 0 1-1.53 0.52zM763.09 370.88h-29.16a2.5 2.5 0 0 1 0-5h29.16a2.5 2.5 0 0 1 0 5z m-58.32 0h-29.16a2.5 2.5 0 0 1 0-5h29.16a2.5 2.5 0 0 1 0 5z m-58.32 0h-29.16a2.5 2.5 0 0 1 0-5h29.16a2.5 2.5 0 0 1 0 5z m-58.32 0H559a2.5 2.5 0 0 1 0-5h29.16a2.5 2.5 0 0 1 0 5z m-58.32 0h-29.16a2.5 2.5 0 0 1 0-5h29.16a2.5 2.5 0 0 1 0 5z m-58.32 0h-29.16a2.5 2.5 0 0 1 0-5h29.16a2.5 2.5 0 0 1 0 5z m-58.32 0H384a2.5 2.5 0 0 1 0-5h29.16a2.5 2.5 0 0 1 0 5z m-58.32 0h-29.16a2.5 2.5 0 0 1 0-5h29.16a2.5 2.5 0 0 1 0 5z m-58.32 0h-29.16a2.5 2.5 0 0 1 0-5h29.16a2.5 2.5 0 0 1 0 5z m-58.32 0A25.6 25.6 0 0 1 214 352.8a2.5 2.5 0 0 1 4.77-1.51 20.61 20.61 0 0 0 19.46 14.6 2.5 2.5 0 0 1 0 5z m554 0a2.5 2.5 0 0 1 0-5 20.61 20.61 0 0 0 19.48-14.56 2.5 2.5 0 0 1 4.76 1.52 25.6 25.6 0 0 1-24.23 18zM806.1 328.33a2.49 2.49 0 0 1-1.53-0.53 20 20 0 0 0-12.39-4.27 2.5 2.5 0 0 1 0-5 25 25 0 0 1 15.46 5.32 2.5 2.5 0 0 1-1.54 4.47z" fill="#66A9F7" /><path d="M405.5 78.52H625a30 30 0 0 1 30 30v159.41H375.5V108.52a30 30 0 0 1 30-30z" fill="#FFFFFF" /><path d="M655 275.43H375.5a7.5 7.5 0 0 1-7.5-7.5V108.52A37.54 37.54 0 0 1 405.5 71H625a37.54 37.54 0 0 1 37.5 37.5v159.43a7.5 7.5 0 0 1-7.5 7.5z m-272-15h264.5V108.52A22.53 22.53 0 0 0 625 86H405.5a22.53 22.53 0 0 0-22.5 22.5z" fill="#66A9F7" /></svg>