<?xml version="1.0" ?>
<!-- Uploaded to: SVG Repo, www.svgrepo.com, Generator: SVG Repo Mixer Tools -->
<svg fill="#000000" width="800px" height="800px" viewBox="0 0 64 64" xmlns="http://www.w3.org/2000/svg">
<title/>
<g data-name="Market Analysis" id="Market_Analysis">
<path d="M53.26,14.83l2,.52-8.72,8.72A2.09,2.09,0,0,0,46,24a2,2,0,0,0-1.72,1H31.72A2,2,0,0,0,30,24a2,2,0,0,0-2,2,2.09,2.09,0,0,0,.07.51l-10,10A7,7,0,0,0,14,35.11V21H49V19H13a1,1,0,0,0-1,1V35.37A7,7,0,0,0,6.9,42.1a7,7,0,0,0,1.4,4.19l-5,5,1.42,1.42,5-5A7,7,0,0,0,18.85,47a7.18,7.18,0,0,0,1.42-2H51a1,1,0,0,0,1-1V24H50V43H20.84c0-.3.06-.6.06-.9a7,7,0,0,0-1.4-4.19l10-10A2.09,2.09,0,0,0,30,28a2,2,0,0,0,1.72-1H44.28A2,2,0,0,0,46,28a2,2,0,0,0,2-2,2.09,2.09,0,0,0-.07-.51l8.72-8.72.52,2L60,12ZM17.5,40.5a2,2,0,1,1-2-2,2.09,2.09,0,0,1,.51.07l.65-.64a5.59,5.59,0,0,1,1.41,1.41l-.64.65A2.09,2.09,0,0,1,17.5,40.5Z"/>
<rect height="4" width="2" x="26" y="37"/>
<rect height="6" width="2" x="30" y="35"/>
<rect height="5" width="2" x="34" y="36"/>
<rect height="7" width="2" x="38" y="34"/>
<rect height="6" width="2" x="42" y="35"/>
<rect height="9" width="2" x="46" y="32"/>
</g>
</svg>