<?xml version="1.0" encoding="iso-8859-1"?>
<!-- Uploaded to: SVG Repo, www.svgrepo.com, Generator: SVG Repo Mixer Tools -->
<svg height="800px" width="800px" version="1.1" id="Layer_1" xmlns="http://www.w3.org/2000/svg" xmlns:xlink="http://www.w3.org/1999/xlink" 
	 viewBox="0 0 512 512" xml:space="preserve">
<circle style="fill:#83CF8F;" cx="256" cy="256" r="256"/>
<path style="fill:#FFFFFF;" d="M255.761,70.72c101.42,0,183.847,81.59,185.28,182.652l20.786-16.366
	c2.867-2.27,7.048-1.792,9.318,1.075l0,0c2.27,2.867,1.792,7.048-1.075,9.318l-31.298,24.609c-1.314,0.956-2.867,1.434-4.42,1.434
	c-1.553,0.119-3.106-0.358-4.42-1.434l-31.298-24.609c-2.867-2.27-3.345-6.451-1.075-9.318l0,0c2.27-2.867,6.451-3.345,9.318-1.075
	l18.755,14.693c-2.27-91.864-77.409-165.689-169.87-165.689c-86.369,0-157.685,64.508-168.437,147.89
	c-2.867-1.672-6.212-2.628-9.557-2.628c-1.911,0-3.942,0.239-5.734,0.836c11.587-91.147,89.475-161.628,183.847-161.628
	L255.761,70.72z M42.049,264.243l31.298-24.608c1.314-0.956,2.867-1.434,4.42-1.434c1.553-0.119,3.106,0.358,4.301,1.434
	l31.298,24.608c2.867,2.27,3.345,6.451,1.075,9.318l0,0c-2.27,2.867-6.451,3.345-9.318,1.075l-19.352-15.171
	c1.911,92.222,77.17,166.406,169.87,166.406c86.488,0,157.924-64.627,168.556-148.248c2.986,1.911,6.451,2.986,10.035,2.867
	c1.792,0,3.464-0.239,5.137-0.717c-11.707,91.028-89.475,161.389-183.727,161.389c-101.42,0-183.727-81.471-185.28-182.533
	l-20.308,15.888c-2.867,2.27-7.048,1.792-9.318-1.075l0,0c-2.27-2.867-1.792-7.048,1.075-9.318L42.049,264.243z"/>
<path style="fill:#FFE356;" d="M264.123,350.253c16.844-11.229,33.687-27.117,48.62-44.08l0.119,0.119
	c0.358-0.478,0.717-0.956,1.195-1.434c0.358-0.478,0.836-0.956,1.195-1.434l-0.119-0.119c14.096-17.68,26.639-37.032,34.763-55.668
	c18.874-43.364,17.322-70.242-9.437-92.7l-13.14-10.99c-5.495-4.539-13.618-3.823-18.158,1.672l-38.346,45.872
	c-2.389,2.867-3.345,6.212-2.867,9.915c0.478,3.703,2.27,6.69,5.376,8.84c20.427,14.335,38.824,21.264,14.932,48.739l-10.632,12.782
	l-2.389,2.867l-10.751,12.782c-22.817,28.312-32.851,11.468-50.65-5.973c-2.628-2.628-5.973-3.942-9.676-3.703
	c-3.703,0.239-6.929,1.792-9.318,4.659l-38.346,45.872c-4.539,5.495-3.823,13.618,1.672,18.158l13.14,10.99
	C198.182,379.879,224.821,376.653,264.123,350.253z"/>
<path style="fill:#FFFFFF;" d="M156.61,328.273l38.346-45.872c2.389-2.867,5.495-4.42,9.318-4.659
	c3.703-0.239,7.048,1.075,9.676,3.703c1.075,1.075,2.031,2.031,3.106,3.106l-54.593,65.344l-4.181-3.464
	C152.788,341.891,152.071,333.648,156.61,328.273z M309.279,145.62l-38.346,45.872c-2.389,2.867-3.345,6.212-2.867,9.915
	s2.27,6.69,5.376,8.84c1.195,0.836,2.389,1.672,3.584,2.509l54.593-65.344l-4.181-3.464
	C321.941,139.408,313.818,140.125,309.279,145.62z"/>
</svg>