<?xml version="1.0" ?>
<!DOCTYPE svg  PUBLIC '-//W3C//DTD SVG 1.1//EN'  'http://www.w3.org/Graphics/SVG/1.1/DTD/svg11.dtd'>
<!-- Uploaded to: SVG Repo, www.svgrepo.com, Generator: SVG Repo Mixer Tools -->
<svg fill="#000000" width="800px" height="800px" viewBox="0 0 32 32" style="fill-rule:evenodd;clip-rule:evenodd;stroke-linejoin:round;stroke-miterlimit:2;" version="1.1" xml:space="preserve" xmlns="http://www.w3.org/2000/svg" xmlns:serif="http://www.serif.com/" xmlns:xlink="http://www.w3.org/1999/xlink">
<g transform="matrix(1,0,0,1,-96,-144)">
<g transform="matrix(1.5,0,0,1.2,-121.5,-34.8)">
<path d="M151,165.667C151,164.746 150.403,164 149.667,164C149.238,164 148.762,164 148.333,164C147.597,164 147,164.746 147,165.667C147,167.516 147,170.484 147,172.333C147,173.254 147.597,174 148.333,174C148.762,174 149.238,174 149.667,174C150.403,174 151,173.254 151,172.333C151,170.484 151,167.516 151,165.667Z" style="fill:rgb(144,224,239);"/>
</g>
<g transform="matrix(1,0,0,1,-48,0)">
<path d="M153,165C153,164.47 153.211,163.961 153.586,163.586C153.961,163.211 154.47,163 155,163L160,163C160.006,163 162,163.003 162,165C162,167 160,167 160,167L164.172,167C164.702,167 165.211,166.789 165.586,166.414C166.697,165.303 169,163 169,163C171.373,160.627 175.213,163.272 171.243,167.243C171.243,167.243 167.968,170.838 166.595,172.347C166.216,172.763 165.679,173 165.116,173C163.053,173 157.874,173 155,173C154.47,173 153.961,172.789 153.586,172.414C153.211,172.039 153,171.53 153,171C153,169.257 153,166.743 153,165Z" style="fill:rgb(144,224,239);"/>
</g>
<g transform="matrix(0.769231,0,0,0.631579,100.692,111.263)">
<path d="M29,58.167C29,57.327 28.726,56.521 28.238,55.927C27.751,55.334 27.09,55 26.4,55C21.418,55 10.582,55 5.6,55C4.91,55 4.249,55.334 3.762,55.927C3.274,56.521 3,57.327 3,58.167C3,61.681 3,67.319 3,70.833C3,71.673 3.274,72.479 3.762,73.073C4.249,73.666 4.91,74 5.6,74C10.582,74 21.418,74 26.4,74C27.09,74 27.751,73.666 28.238,73.073C28.726,72.479 29,71.673 29,70.833C29,67.319 29,61.681 29,58.167Z" style="fill:rgb(144,224,239);"/>
</g>
<path d="M105.529,173.615C105.974,173.865 106.48,174 107,174C109.874,174 115.053,174 117.116,174C117.961,174 118.766,173.644 119.334,173.02C119.334,173.02 123.967,167.932 123.967,167.932C125.934,165.956 126.193,164.182 125.798,163.027C125.114,161.029 122.338,160.248 120.293,162.293C120.293,162.293 117.99,164.596 116.879,165.707C116.691,165.895 116.437,166 116.172,166L114.868,166C114.952,165.71 115,165.379 115,165C115,162.005 112.009,162 112.001,162L107,162C106.48,162 105.974,162.135 105.529,162.385C104.996,161.552 104.062,161 103,161L101,161C99.343,161 98,162.343 98,164L98,172C98,173.657 99.343,175 101,175L103,175C104.062,175 104.996,174.448 105.529,173.615ZM104,164L104,172C104,172.552 103.552,173 103,173C103,173 101,173 101,173C100.448,173 100,172.552 100,172C100,172 100,164 100,164C100,163.448 100.448,163 101,163C101,163 103,163 103,163C103.552,163 104,163.448 104,164ZM106,165L106,171C106,171.265 106.105,171.52 106.293,171.707C106.48,171.895 106.735,172 107,172L117.116,172C117.398,172 117.666,171.881 117.856,171.673C119.229,170.165 122.503,166.569 122.519,166.552L122.536,166.536C123.732,165.339 124.145,164.373 123.906,163.674C123.635,162.883 122.517,162.898 121.707,163.707C121.707,163.707 119.404,166.01 118.293,167.121C117.73,167.684 116.967,168 116.172,168L109,168C108.448,168 108,167.552 108,167C108,166.448 108.448,166 109,166L112,166C112,166 113,166 113,165C113,164.001 112.002,164 112,164L107,164C106.735,164 106.48,164.105 106.293,164.293C106.105,164.48 106,164.735 106,165ZM124,156L124,148C124,147.204 123.684,146.441 123.121,145.879C122.559,145.316 121.796,145 121,145C117.168,145 108.832,145 105,145C104.204,145 103.441,145.316 102.879,145.879C102.316,146.441 102,147.204 102,148L102,156C102,156.796 102.316,157.559 102.879,158.121C103.441,158.684 104.204,159 105,159C108.832,159 117.168,159 121,159C121.796,159 122.559,158.684 123.121,158.121C123.684,157.559 124,156.796 124,156ZM122,148L122,156C122,156.265 121.895,156.52 121.707,156.707C121.52,156.895 121.265,157 121,157L105,157C104.735,157 104.48,156.895 104.293,156.707C104.105,156.52 104,156.265 104,156C104,156 104,148 104,148C104,147.735 104.105,147.48 104.293,147.293C104.48,147.105 104.735,147 105,147L121,147C121.265,147 121.52,147.105 121.707,147.293C121.895,147.48 122,147.735 122,148ZM119,156L120,156C120.552,156 121,155.552 121,155C121,154.448 120.552,154 120,154L119,154C118.448,154 118,154.448 118,155C118,155.552 118.448,156 119,156ZM113,149C111.344,149 110,150.344 110,152C110,153.656 111.344,155 113,155C114.656,155 116,153.656 116,152C116,150.344 114.656,149 113,149ZM113,151C113.552,151 114,151.448 114,152C114,152.552 113.552,153 113,153C112.448,153 112,152.552 112,152C112,151.448 112.448,151 113,151ZM106,150L107,150C107.552,150 108,149.552 108,149C108,148.448 107.552,148 107,148L106,148C105.448,148 105,148.448 105,149C105,149.552 105.448,150 106,150Z" style="fill:rgb(25,144,167);"/>
</g>
</svg>