<?xml version="1.0" ?>
<!-- Uploaded to: SVG Repo, www.svgrepo.com, Generator: SVG Repo Mixer Tools -->
<svg width="800px" height="800px" viewBox="0 0 128 128" xmlns="http://www.w3.org/2000/svg">
<defs>
<style>.cls-1{fill:#2e2f42;}</style>
</defs>
<title/>
<g data-name="Layer 2" id="Layer_2">
<g id="Export">
<path class="cls-1" d="M64,3A61,61,0,1,1,3,64,61.06,61.06,0,0,1,64,3m0-3a64,64,0,1,0,64,64A64,64,0,0,0,64,0Z"/>
<path class="cls-1" d="M85.57,49.28a1.5,1.5,0,0,0-1.5,1.5v9a1.5,1.5,0,0,0,3,0v-9A1.5,1.5,0,0,0,85.57,49.28Z"/>
<path class="cls-1" d="M42.43,49.28a1.5,1.5,0,0,0-1.5,1.5v9a1.5,1.5,0,0,0,3,0v-9A1.5,1.5,0,0,0,42.43,49.28Z"/>
<path class="cls-1" d="M87.11,92.08a41,41,0,0,0-26-7.22,40.13,40.13,0,0,0-9.48,1.88,18,18,0,0,0-2.72-7.8C47,76,44.67,74.33,42.43,74.33S37.84,76,36,78.94c-2.2,3.42-4,9.11-1.79,13.9,1.38,3,4.47,6,8.26,6s6.89-3,8.27-6a11,11,0,0,0,.86-2.92,36.88,36.88,0,0,1,9.76-2.07,37.94,37.94,0,0,1,24.09,6.7,1.51,1.51,0,0,0,2.08-.38A1.49,1.49,0,0,0,87.11,92.08ZM48,91.59c-.68,1.49-2.71,4.3-5.54,4.3s-4.85-2.81-5.53-4.3c-1.58-3.45-.34-8,1.58-11,1.27-2,2.82-3.23,4-3.23s2.69,1.27,4,3.23C48.31,83.56,49.55,88.14,48,91.59Z"/>
</g>
</g>
</svg>