<?xml version="1.0" ?>
<!DOCTYPE svg  PUBLIC '-//W3C//DTD SVG 1.1//EN'  'http://www.w3.org/Graphics/SVG/1.1/DTD/svg11.dtd'>
<!-- Uploaded to: SVG Repo, www.svgrepo.com, Generator: SVG Repo Mixer Tools -->
<svg fill="#000000" width="800px" height="800px" viewBox="0 0 32 32" style="fill-rule:evenodd;clip-rule:evenodd;stroke-linejoin:round;stroke-miterlimit:2;" version="1.1" xml:space="preserve" xmlns="http://www.w3.org/2000/svg" xmlns:serif="http://www.serif.com/" xmlns:xlink="http://www.w3.org/1999/xlink">
<g transform="matrix(1,0,0,1,-48,-144)">
<g transform="matrix(1.05882,0,0,1.11455,0.823529,-16.839)">
<path d="M71,148.794C71,148.319 70.801,147.862 70.447,147.526C70.093,147.189 69.612,147 69.111,147C65.84,147 59.16,147 55.889,147C55.388,147 54.907,147.189 54.553,147.526C54.199,147.862 54,148.319 54,148.794C54,152.233 54,159.712 54,163.15C54,163.626 54.199,164.082 54.553,164.419C54.907,164.755 55.388,164.944 55.889,164.944C59.16,164.944 65.84,164.944 69.111,164.944C69.612,164.944 70.093,164.755 70.447,164.419C70.801,164.082 71,163.626 71,163.15C71,159.712 71,152.233 71,148.794Z" style="fill:rgb(144,224,239);"/>
</g>
<g transform="matrix(1.5,0,0,1.2,-169.5,-34.8)">
<path d="M151,165.667C151,164.746 150.403,164 149.667,164C149.238,164 148.762,164 148.333,164C147.597,164 147,164.746 147,165.667C147,167.516 147,170.484 147,172.333C147,173.254 147.597,174 148.333,174C148.762,174 149.238,174 149.667,174C150.403,174 151,173.254 151,172.333C151,170.484 151,167.516 151,165.667Z" style="fill:rgb(144,224,239);"/>
</g>
<g transform="matrix(1,0,0,1,-96,0)">
<path d="M153,165C153,164.47 153.211,163.961 153.586,163.586C153.961,163.211 154.47,163 155,163L160,163C160.006,163 162,163.003 162,165C162,167 160,167 160,167L164.172,167C164.702,167 165.211,166.789 165.586,166.414C166.697,165.303 169,163 169,163C171.373,160.627 175.213,163.272 171.243,167.243C171.243,167.243 167.968,170.838 166.595,172.347C166.216,172.763 165.679,173 165.116,173C163.053,173 157.874,173 155,173C154.47,173 153.961,172.789 153.586,172.414C153.211,172.039 153,171.53 153,171C153,169.257 153,166.743 153,165Z" style="fill:rgb(144,224,239);"/>
</g>
<path d="M57,161.764C56.469,161.289 55.768,161 55,161L53,161C51.343,161 50,162.343 50,164L50,172C50,173.657 51.343,175 53,175L55,175C56.062,175 56.996,174.448 57.529,173.615C57.974,173.865 58.48,174 59,174C61.874,174 67.053,174 69.116,174C69.961,174 70.766,173.644 71.334,173.02C71.334,173.02 75.967,167.932 75.967,167.932C77.934,165.956 78.193,164.182 77.798,163.027C77.637,162.555 77.358,162.15 77,161.836L77,149C77,148.204 76.684,147.441 76.121,146.879C75.559,146.316 74.796,146 74,146L60,146C59.204,146 58.441,146.316 57.879,146.879C57.316,147.441 57,148.204 57,149L57,161.764ZM56,164L56,172C56,172.552 55.552,173 55,173C55,173 53,173 53,173C52.448,173 52,172.552 52,172C52,172 52,164 52,164C52,163.448 52.448,163 53,163C53,163 55,163 55,163C55.552,163 56,163.448 56,164ZM58,165L58,171C58,171.265 58.105,171.52 58.293,171.707C58.48,171.895 58.735,172 59,172L69.116,172C69.398,172 69.666,171.881 69.856,171.673C71.229,170.165 74.503,166.569 74.519,166.552L74.536,166.536C75.732,165.339 76.145,164.373 75.906,163.674C75.635,162.883 74.517,162.898 73.707,163.707C73.707,163.707 71.404,166.01 70.293,167.121C69.73,167.684 68.967,168 68.172,168L61,168C60.448,168 60,167.552 60,167C60,166.448 60.448,166 61,166L64,166C64,166 65,166 65,165C65,164.001 64.002,164 64,164L59,164C58.735,164 58.48,164.105 58.293,164.293C58.105,164.48 58,164.735 58,165ZM75,161.092L75,149C75,148.735 74.895,148.48 74.707,148.293C74.52,148.105 74.265,148 74,148L71,148L71,152C71,152.53 70.789,153.039 70.414,153.414C70.039,153.789 69.53,154 69,154C67.89,154 66.11,154 65,154C64.47,154 63.961,153.789 63.586,153.414C63.211,153.039 63,152.53 63,152L63,148L60,148C59.735,148 59.48,148.105 59.293,148.293C59.105,148.48 59,148.735 59,149L59,162L64.001,162C64.009,162 67,162.005 67,165C67,165.379 66.952,165.71 66.868,166L68.172,166C68.437,166 68.691,165.895 68.879,165.707C69.99,164.596 72.293,162.293 72.293,162.293C73.137,161.449 74.105,161.086 75,161.092ZM69,152L65,152C65,152 65,148 65,148L69,148L69,152Z" style="fill:rgb(25,144,167);"/>
</g>
</svg>