<?xml version="1.0" encoding="utf-8"?>
<!-- Uploaded to: SVG Repo, www.svgrepo.com, Generator: SVG Repo Mixer Tools -->
<svg width="800px" height="800px" viewBox="0 0 1024 1024" class="icon"  version="1.1" xmlns="http://www.w3.org/2000/svg"><path d="M513.6 158.59a179 179 0 0 1 179 179v468.24h-358V337.59a179 179 0 0 1 179-179zM692.58 779.1a179 179 0 0 1-358 0" fill="#DFEDFF" /><path d="M512.88 960.4c-102.84 0-186.5-83.66-186.5-186.5v-442c0-102.84 83.66-186.5 186.5-186.5s186.5 83.66 186.5 186.5v442c0 102.83-83.67 186.5-186.5 186.5z m0-800c-94.57 0-171.5 76.93-171.5 171.5v442c0 94.57 76.93 171.5 171.5 171.5s171.5-76.93 171.5-171.5v-442c0-94.57-76.94-171.5-171.5-171.5z" fill="#66A9F7" /><path d="M673 249.09s-54.64 50.06-62.91 107.58l-69.65-38 62.31-109.93zM573 206.08s-54.64 50.06-62.91 107.58l-69.65-38 62.31-109.93z" fill="#66A9F7" /><path d="M347.86 250.08s54.85 49.84 63.36 107.32l69.49-38.27-62.76-109.67zM447.45 81.08s70.62 22.46 124.63 1l1.73 79.31-126.36 0.69z" fill="#66A9F7" /><path d="M410.38 173.79m-100 0a100 100 0 1 0 200 0 100 100 0 1 0-200 0Z" fill="#FFFFFF" /><path d="M410.38 281.29a107.5 107.5 0 1 1 107.5-107.5 107.62 107.62 0 0 1-107.5 107.5z m0-200a92.5 92.5 0 1 0 92.5 92.5 92.6 92.6 0 0 0-92.5-92.5z" fill="#66A9F7" /><path d="M410.38 173.79m-50 0a50 50 0 1 0 100 0 50 50 0 1 0-100 0Z" fill="#DFEDFF" /><path d="M410.38 226.29a52.47 52.47 0 0 1-16.17-2.54 2.5 2.5 0 1 1 1.54-4.76 48 48 0 0 0 29.35 0 2.5 2.5 0 0 1 1.55 4.75 52.45 52.45 0 0 1-16.27 2.55zM370 205.74a2.5 2.5 0 0 1-2-1 52.11 52.11 0 0 1-10.07-30.82 2.5 2.5 0 0 1 2.5-2.5 2.5 2.5 0 0 1 2.5 2.5 47.14 47.14 0 0 0 9.07 27.85 2.5 2.5 0 0 1-2 4z m80.87-0.08a2.5 2.5 0 0 1-2-4 47.14 47.14 0 0 0 9.06-27.9v-0.18a2.5 2.5 0 0 1 2.48-2.52 2.5 2.5 0 0 1 2.5 2.48v0.22a52.11 52.11 0 0 1-10 30.84 2.5 2.5 0 0 1-2.07 1.06z m-81-58.67a2.5 2.5 0 0 1-2-4 53 53 0 0 1 26.13-19.1 2.5 2.5 0 0 1 1.56 4.75A47.92 47.92 0 0 0 371.88 146a2.5 2.5 0 0 1-2.03 1z m80.88-0.25a2.5 2.5 0 0 1-2-1 47.92 47.92 0 0 0-23.79-17.18 2.5 2.5 0 1 1 1.53-4.76 53 53 0 0 1 26.3 19 2.5 2.5 0 0 1-2 4z" fill="#66A9F7" /><path d="M610.74 173.79m-100 0a100 100 0 1 0 200 0 100 100 0 1 0-200 0Z" fill="#FFFFFF" /><path d="M610.74 281.29a107.5 107.5 0 1 1 107.5-107.5 107.62 107.62 0 0 1-107.5 107.5z m0-200a92.5 92.5 0 1 0 92.5 92.5 92.6 92.6 0 0 0-92.5-92.5z" fill="#66A9F7" /><path d="M610.74 173.79m-50 0a50 50 0 1 0 100 0 50 50 0 1 0-100 0Z" fill="#DFEDFF" /><path d="M610.74 226.29a52.48 52.48 0 0 1-16.17-2.54 2.5 2.5 0 0 1 1.54-4.76 48 48 0 0 0 29.35 0 2.5 2.5 0 1 1 1.55 4.75 52.45 52.45 0 0 1-16.27 2.55z m-40.41-20.54a2.5 2.5 0 0 1-2-1 52.12 52.12 0 0 1-10.07-30.82 2.5 2.5 0 0 1 2.5-2.5 2.5 2.5 0 0 1 2.5 2.5 47.15 47.15 0 0 0 9.11 27.88 2.5 2.5 0 0 1-2 4z m80.87-0.08a2.5 2.5 0 0 1-2-4 47.14 47.14 0 0 0 9.06-27.9v-0.2a2.5 2.5 0 1 1 5 0v0.2a52.12 52.12 0 0 1-10 30.84 2.5 2.5 0 0 1-2.05 1.05z m-81-58.67a2.5 2.5 0 0 1-2-4 53 53 0 0 1 26.18-19.14 2.5 2.5 0 1 1 1.56 4.75 47.93 47.93 0 0 0-23.7 17.39 2.49 2.49 0 0 1-2.03 1z m80.88-0.25a2.49 2.49 0 0 1-2-1 47.92 47.92 0 0 0-23.79-17.18 2.5 2.5 0 1 1 1.53-4.76 52.94 52.94 0 0 1 26.3 19 2.5 2.5 0 0 1-2 4z" fill="#66A9F7" /><path d="M510.74 347.21m-100 0a100 100 0 1 0 200 0 100 100 0 1 0-200 0Z" fill="#FFFFFF" /><path d="M510.74 454.71a107.5 107.5 0 1 1 107.5-107.5 107.62 107.62 0 0 1-107.5 107.5z m0-200a92.5 92.5 0 1 0 92.5 92.5 92.6 92.6 0 0 0-92.5-92.5z" fill="#66A9F7" /><path d="M510.74 347.21m-50 0a50 50 0 1 0 100 0 50 50 0 1 0-100 0Z" fill="#DFEDFF" /><path d="M510.74 399.71a52.47 52.47 0 0 1-16.17-2.54 2.5 2.5 0 0 1 1.54-4.76 48 48 0 0 0 29.35 0 2.5 2.5 0 0 1 1.55 4.75 52.45 52.45 0 0 1-16.27 2.55z m-40.41-20.55a2.5 2.5 0 0 1-2-1 52.11 52.11 0 0 1-10.07-30.82 2.5 2.5 0 0 1 2.5-2.5 2.5 2.5 0 0 1 2.5 2.5 47.14 47.14 0 0 0 9.11 27.88 2.5 2.5 0 0 1-2 4z m80.87-0.08a2.5 2.5 0 0 1-2-4 47.14 47.14 0 0 0 9.06-27.9V347a2.5 2.5 0 1 1 5 0v0.2a52.12 52.12 0 0 1-10 30.84 2.5 2.5 0 0 1-2.05 1.04z m-81-58.67a2.5 2.5 0 0 1-2-4 53 53 0 0 1 26.18-19.14 2.5 2.5 0 0 1 1.56 4.75 47.93 47.93 0 0 0-23.69 17.32 2.5 2.5 0 0 1-2.03 1.08z m80.88-0.24a2.49 2.49 0 0 1-2-1 47.92 47.92 0 0 0-23.8-17.17 2.5 2.5 0 0 1 1.53-4.76 52.94 52.94 0 0 1 26.3 19 2.5 2.5 0 0 1-2 4z" fill="#66A9F7" /><path d="M513.76 609.4m-45 0a45 45 0 1 0 90 0 45 45 0 1 0-90 0Z" fill="#FFFFFF" /><path d="M513.76 661.9a52.5 52.5 0 1 1 52.5-52.5 52.56 52.56 0 0 1-52.5 52.5z m0-90a37.5 37.5 0 1 0 37.5 37.5 37.54 37.54 0 0 0-37.5-37.5z" fill="#66A9F7" /></svg>