<?xml version="1.0" encoding="utf-8"?><!-- Uploaded to: SVG Repo, www.svgrepo.com, Generator: SVG Repo Mixer Tools -->
<svg width="800px" height="800px" viewBox="0 -0.5 25 25" fill="none" xmlns="http://www.w3.org/2000/svg">
<path fill-rule="evenodd" clip-rule="evenodd" d="M15.5 19H9.5C7.29086 19 5.5 17.2091 5.5 15V9C5.5 6.79086 7.29086 5 9.5 5H15.5C17.7091 5 19.5 6.79086 19.5 9V15C19.5 17.2091 17.7091 19 15.5 19Z" stroke="#000000" stroke-width="1.5" stroke-linecap="round" stroke-linejoin="round"/>
<path d="M19.5 9.75C19.9142 9.75 20.25 9.41421 20.25 9C20.25 8.58579 19.9142 8.25 19.5 8.25V9.75ZM5.5 8.25C5.08579 8.25 4.75 8.58579 4.75 9C4.75 9.41421 5.08579 9.75 5.5 9.75V8.25ZM11.5 14.25C11.0858 14.25 10.75 14.5858 10.75 15C10.75 15.4142 11.0858 15.75 11.5 15.75V14.25ZM13.5 15.75C13.9142 15.75 14.25 15.4142 14.25 15C14.25 14.5858 13.9142 14.25 13.5 14.25V15.75ZM19.5 8.25H5.5V9.75H19.5V8.25ZM11.5 15.75H13.5V14.25H11.5V15.75Z" fill="#000000"/>
</svg>