<?xml version="1.0" ?>
<!-- Uploaded to: SVG Repo, www.svgrepo.com, Generator: SVG Repo Mixer Tools -->
<svg fill="#000000" width="800px" height="800px" viewBox="0 0 24 24" xmlns="http://www.w3.org/2000/svg">
<g id="shop-notification">
<path d="M21.6177,10.0894l-.2066-.7261a.5.5,0,1,0-.9619.2734l.2066.7266a.5.5,0,0,1-.48.6367H3.83a.5046.5046,0,0,1-.4063-.2021.4856.4856,0,0,1-.083-.43L4.7686,5.3745A.5154.5154,0,0,1,5.25,5H13.5a.5.5,0,0,0,0-1H5.25A1.5242,1.5242,0,0,0,3.8091,5.0923l-1.43,5.0005A1.48,1.48,0,0,0,2.6255,11.4,1.4965,1.4965,0,0,0,3.83,12H4v6.5A2.503,2.503,0,0,0,6.5,21h11A2.503,2.503,0,0,0,20,18.5V12h.1753a1.4994,1.4994,0,0,0,1.4424-1.9106ZM19,18.5A1.5017,1.5017,0,0,1,17.5,20H6.5A1.5017,1.5017,0,0,1,5,18.5V12H19Z"/>
<path d="M18.5,3A2.5,2.5,0,1,0,21,5.5,2.503,2.503,0,0,0,18.5,3Zm0,4A1.5,1.5,0,1,1,20,5.5,1.5017,1.5017,0,0,1,18.5,7Z"/>
</g>
</svg>