<?xml version="1.0" encoding="utf-8"?>
<!-- Uploaded to: SVG Repo, www.svgrepo.com, Generator: SVG Repo Mixer Tools -->
<svg width="800px" height="800px" viewBox="0 0 1024 1024" class="icon"  version="1.1" xmlns="http://www.w3.org/2000/svg"><path d="M585.31 827.46m-114.34 0a114.34 114.34 0 1 0 228.68 0 114.34 114.34 0 1 0-228.68 0Z" fill="#FFFFFF" /><path d="M585.37 944.3h-0.06a117.17 117.17 0 0 1-30.17-3.93 2.5 2.5 0 1 1 1.29-4.83 112.2 112.2 0 0 0 28.88 3.76 2.53 2.53 0 0 1 2.53 2.5 2.47 2.47 0 0 1-2.47 2.5z m29.63-3.88a2.5 2.5 0 0 1-0.64-4.92 111.24 111.24 0 0 0 27-11.19 2.5 2.5 0 0 1 2.51 4.33 116.25 116.25 0 0 1-28.17 11.69 2.5 2.5 0 0 1-0.7 0.09zM528.2 929a2.49 2.49 0 0 1-1.25-0.34 117.3 117.3 0 0 1-24.2-18.56 2.5 2.5 0 0 1 3.53-3.54 112.32 112.32 0 0 0 23.16 17.77 2.5 2.5 0 0 1-1.24 4.67z m138-18.25a2.5 2.5 0 0 1-1.77-4.27 112.28 112.28 0 0 0 17.78-23.15 2.5 2.5 0 1 1 4.33 2.5 117.24 117.24 0 0 1-18.57 24.19 2.49 2.49 0 0 1-1.79 0.77z m-179.87-23.53a2.5 2.5 0 0 1-2.17-1.25 116.22 116.22 0 0 1-11.71-28.16 2.5 2.5 0 0 1 4.83-1.3 111.23 111.23 0 0 0 11.2 26.95 2.5 2.5 0 0 1-2.16 3.75z m209.46-27.68a2.5 2.5 0 0 1-2.42-3.15 112.13 112.13 0 0 0 3.78-28.94v-0.25a2.5 2.5 0 0 1 5 0v0.28a117.09 117.09 0 0 1-4 30.2 2.5 2.5 0 0 1-2.37 1.87zM471 830.08a2.5 2.5 0 0 1-2.5-2.5v-0.12a117.19 117.19 0 0 1 3.92-30.11 2.5 2.5 0 0 1 4.83 1.29 112.18 112.18 0 0 0-3.75 28.82v0.12a2.5 2.5 0 0 1-2.5 2.5z m224.74-29.95a2.5 2.5 0 0 1-2.41-1.85 111.23 111.23 0 0 0-11.23-26.94 2.5 2.5 0 1 1 4.32-2.51A116.23 116.23 0 0 1 698.13 797a2.5 2.5 0 0 1-2.42 3.15zM486.2 772.91a2.5 2.5 0 0 1-2.16-3.75A117.3 117.3 0 0 1 502.59 745a2.5 2.5 0 0 1 3.54 3.53 112.29 112.29 0 0 0-17.76 23.17 2.5 2.5 0 0 1-2.17 1.21zM666 749a2.49 2.49 0 0 1-1.76-0.73 112.31 112.31 0 0 0-23.18-17.75 2.5 2.5 0 1 1 2.5-4.33 117.26 117.26 0 0 1 24.22 18.54A2.5 2.5 0 0 1 666 749z m-138-18a2.5 2.5 0 0 1-1.26-4.66 116.22 116.22 0 0 1 28.15-11.72 2.5 2.5 0 0 1 1.3 4.83 111.23 111.23 0 0 0-26.94 11.22 2.48 2.48 0 0 1-1.25 0.33z m86.72-11.56a2.52 2.52 0 0 1-0.64-0.08 112.18 112.18 0 0 0-28.77-3.73h-0.18a2.5 2.5 0 0 1 0-5h0.17a117.23 117.23 0 0 1 30.07 3.9 2.5 2.5 0 0 1-0.64 4.92z" fill="#66A9F7" /><path d="M187.24 649.08m-114.34 0a114.34 114.34 0 1 0 228.68 0 114.34 114.34 0 1 0-228.68 0Z" fill="#FFFFFF" /><path d="M187.31 765.91h-0.06a117.17 117.17 0 0 1-30.18-3.91 2.5 2.5 0 1 1 1.29-4.83 112.18 112.18 0 0 0 28.88 3.76 2.53 2.53 0 0 1 2.53 2.5 2.47 2.47 0 0 1-2.46 2.48z m29.58-3.91a2.5 2.5 0 0 1-0.65-4.92 111.21 111.21 0 0 0 27-11.19 2.5 2.5 0 1 1 2.51 4.33 116.24 116.24 0 0 1-28.17 11.69 2.5 2.5 0 0 1-0.69 0.09z m-86.75-11.38a2.49 2.49 0 0 1-1.25-0.34 117.3 117.3 0 0 1-24.2-18.56 2.5 2.5 0 0 1 3.53-3.54A112.29 112.29 0 0 0 131.39 746a2.5 2.5 0 0 1-1.25 4.67z m138-18.25a2.5 2.5 0 0 1-1.77-4.27 112.29 112.29 0 0 0 17.75-23.1 2.5 2.5 0 1 1 4.33 2.5 117.28 117.28 0 0 1-18.57 24.19 2.49 2.49 0 0 1-1.77 0.72zM88.26 708.84a2.5 2.5 0 0 1-2.17-1.25 116.22 116.22 0 0 1-11.71-28.16 2.5 2.5 0 1 1 4.83-1.3 111.23 111.23 0 0 0 11.2 26.95 2.5 2.5 0 0 1-2.16 3.75z m209.46-27.68a2.5 2.5 0 0 1-2.42-3.16 112.17 112.17 0 0 0 3.78-28.94v-0.25a2.5 2.5 0 0 1 5 0v0.25a117.17 117.17 0 0 1-3.95 30.23 2.5 2.5 0 0 1-2.41 1.87zM72.91 651.64a2.45 2.45 0 0 1-2.5-2.44v-0.2a117.13 117.13 0 0 1 3.91-30 2.5 2.5 0 0 1 4.83 1.29 112.18 112.18 0 0 0-3.75 28.82 2.55 2.55 0 0 1-2.49 2.53z m224.74-29.89a2.5 2.5 0 0 1-2.41-1.85A111.2 111.2 0 0 0 284 593a2.5 2.5 0 0 1 4.32-2.51 116.23 116.23 0 0 1 11.74 28.15 2.5 2.5 0 0 1-2.42 3.15zM88.13 594.52a2.5 2.5 0 0 1-2.13-3.75 117.32 117.32 0 0 1 18.55-24.21 2.5 2.5 0 0 1 3.54 3.53 112.29 112.29 0 0 0-17.79 23.18 2.5 2.5 0 0 1-2.17 1.25z m179.81-23.94a2.49 2.49 0 0 1-1.76-0.73A112.31 112.31 0 0 0 243 552.11a2.5 2.5 0 1 1 2.5-4.33 117.31 117.31 0 0 1 24.22 18.54 2.5 2.5 0 0 1-1.76 4.27z m-138-18a2.5 2.5 0 0 1-1.26-4.66 116.23 116.23 0 0 1 28.15-11.72 2.5 2.5 0 1 1 1.3 4.83 111.25 111.25 0 0 0-26.94 11.22 2.49 2.49 0 0 1-1.26 0.37z m86.72-11.56a2.52 2.52 0 0 1-0.66-0.02 112.16 112.16 0 0 0-28.77-3.73h-0.18a2.5 2.5 0 0 1 0-5h0.18a117.18 117.18 0 0 1 30 3.9 2.5 2.5 0 0 1-0.64 4.92z" fill="#66A9F7" /><path d="M550.31 113.62a131 131 0 0 0-30.93 45.67l-0.22-0.23c-0.11 0.56-0.23 1.12-0.34 1.68a158 158 0 0 0-9.49 36.57c-44.81 139.53-164.43 184.46-217.54 197.8-31.31 3.55-59.46 15.47-81.44 36.41-72.33 68.86-50.68 209 48.35 313S496.64 877.06 569 808.2a131.06 131.06 0 0 0 31.1-46.09l-0.06 0.45c-0.18 0 0.24-0.89 0.77-2.26a156.45 156.45 0 0 0 8.45-31.3c18.73-56.45 72.8-167.86 213.58-201.86 33.16-2.86 63-14.91 86.08-36.87 72.33-68.86 50.68-209-48.35-313S622.64 44.76 550.31 113.62z" fill="#DFEDFF" /><path d="M518.81 160.73c-4.55 11.48-6.63 24-9.49 36.57C476.61 341 344.9 381.77 291.79 395.11c-31.31 3.55-59.46 15.47-81.44 36.41-72.33 68.86-50.68 209 48.35 313S496.64 877.06 569 808.2a131.06 131.06 0 0 0 31.1-46.09s0.24 0.36 0.14 0.33c-0.49-0.17 0.3-0.74 0.57-2.14 3.86-9.9 5.86-20.59 8.49-31.27 14.32-58 69.91-178.5 213.58-201.86 32.68-5.31 63-14.91 86.08-36.87 72.33-68.86 50.68-209-48.35-313s-237.97-132.54-310.3-63.68a131 131 0 0 0-30.93 45.67" fill="#DFEDFF" /><path d="M467.37 853.31a224.33 224.33 0 0 1-45-4.76c-60.09-12.33-120.13-47.43-169.07-98.83s-81-113.1-90.41-173.72c-9.52-61.62 5.52-114.86 42.33-149.91 22.27-21.21 51.75-34.47 85.27-38.37 44.88-11.32 82-27.29 113.53-48.82 51.41-35.12 84.39-83.32 98-143.26 0.63-2.77 1.22-5.55 1.81-8.3 2.09-9.77 4.25-19.87 8-29.37 0.09-0.23 0.2-0.46 0.31-0.68a7.66 7.66 0 0 1 0.29-0.85 138.45 138.45 0 0 1 32.7-48.26c36.81-35 90.72-47.45 151.8-34.92C757 85.6 817.07 120.7 866 172.11s81.05 113.1 90.41 173.72c9.52 61.62-5.52 114.86-42.33 149.91-21.2 20.19-49 32.16-90 38.84-61 9.92-111.74 38.63-150.74 85.33-37.65 45.08-52.24 92.59-56.76 110.92-0.62 2.52-1.21 5-1.79 7.54-1.86 8-3.79 16.28-6.81 24.17-0.1 0.37-0.21 0.71-0.32 1a7.65 7.65 0 0 1-1.48 3.49 138.17 138.17 0 0 1-32 46.57c-27.49 26.17-64.46 39.71-106.81 39.71zM526 162.73a7.69 7.69 0 0 1-0.26 0.77c-3.31 8.33-5.24 17.39-7.29 27-0.6 2.82-1.21 5.66-1.86 8.5-14.51 63.75-49.57 115-104.2 152.32-33.11 22.62-72 39.33-118.81 51.1l-0.48 0.12-0.5 0.06c-30.89 3.5-56.83 15.07-77.12 34.39-33.15 31.56-46.59 80.13-37.85 136.75 8.9 57.62 39.6 116.46 86.45 165.67s104.11 82.76 161.22 94.48c56.13 11.51 105.29 0.47 138.44-31.09a123.61 123.61 0 0 0 29.32-43.47l0.67-1.72c2.74-7 4.5-14.6 6.36-22.61 0.6-2.57 1.2-5.16 1.84-7.74 4.77-19.34 20.16-69.46 59.81-116.94 41.38-49.55 95.16-80 159.85-90.52 37.91-6.16 63.23-16.93 82.11-34.9 33.15-31.56 46.59-80.13 37.85-136.75-8.9-57.62-39.6-116.46-86.45-165.67S751 99.69 693.93 88c-56.13-11.51-105.29-0.47-138.44 31.09a123.54 123.54 0 0 0-29.16 43.07c-0.09 0.17-0.19 0.37-0.33 0.57z" fill="#66A9F7" /><path d="M544 345.74c-1.75 4.4-2.54 9.21-3.64 14-12.55 55.14-63.09 70.78-83.46 75.9-12 1.36-22.81 5.94-31.25 14-27.75 26.42-19.45 80.19 18.55 120.1s91.3 50.84 119 24.42a50.29 50.29 0 0 0 11.93-17.68s0.09 0.14 0.05 0.12 0.11-0.29 0.22-0.82a97.05 97.05 0 0 0 3.26-12c5.5-22.26 26.82-68.49 81.95-77.45 12.54-2 24.18-5.72 33-14.15 27.75-26.42 19.45-80.19-18.55-120.1s-91.3-50.84-119-24.42a50.26 50.26 0 0 0-11.87 17.52" fill="#DFEDFF" /><path d="M540.23 362.74a2.5 2.5 0 0 1-2.44-3.07l0.11-0.46c0.24-1.07 0.47-2.13 0.7-3.19a69.91 69.91 0 0 1 3.06-11.21 2.5 2.5 0 1 1 4.65 1.84 65.21 65.21 0 0 0-2.82 10.41c-0.23 1.08-0.46 2.17-0.71 3.25l-0.11 0.49a2.5 2.5 0 0 1-2.44 1.94zM524.12 611.07a80.89 80.89 0 0 1-8.16-0.42 2.5 2.5 0 0 1 0.51-5A64.54 64.54 0 0 0 543.6 603a2.5 2.5 0 0 1 1.6 4.74 65.86 65.86 0 0 1-21.08 3.33z m-35.41-7.61a2.5 2.5 0 0 1-1-0.19A127.28 127.28 0 0 1 462.45 589a2.5 2.5 0 1 1 2.92-4.06 122.26 122.26 0 0 0 24.31 13.69 2.5 2.5 0 0 1-1 4.81z m-46.1-32.88a2.49 2.49 0 0 1-1.84-0.8 142.46 142.46 0 0 1-17.42-23.17 2.5 2.5 0 1 1 4.29-2.58 137.46 137.46 0 0 0 16.81 22.35 2.5 2.5 0 0 1-1.84 4.2z m-28.9-48.67a2.5 2.5 0 0 1-2.38-1.75 95.08 95.08 0 0 1-4.61-28.47v-0.35a2.5 2.5 0 0 1 2.5-2.49 2.5 2.5 0 0 1 2.49 2.51v0.33a90.1 90.1 0 0 0 4.38 27 2.5 2.5 0 0 1-2.39 3.25z m1.58-55.68a2.5 2.5 0 0 1-2.24-3.61 52.31 52.31 0 0 1 10.84-14.79 51.77 51.77 0 0 1 9.16-7 2.5 2.5 0 1 1 2.56 4.29 46.78 46.78 0 0 0-8.28 6.28 47.33 47.33 0 0 0-9.81 13.39 2.5 2.5 0 0 1-2.23 1.43zM461.37 437a2.5 2.5 0 0 1-0.66-4.91 142.53 142.53 0 0 0 26.2-9.91 2.5 2.5 0 1 1 2.24 4.47A147.44 147.44 0 0 1 462 436.89a2.51 2.51 0 0 1-0.63 0.11z m50.32-25.9a2.5 2.5 0 0 1-1.66-4.37 88.24 88.24 0 0 0 17.61-21.28 2.5 2.5 0 0 1 4.31 2.54 93.24 93.24 0 0 1-18.6 22.49 2.49 2.49 0 0 1-1.67 0.6zM567.61 591.89a2.5 2.5 0 0 1-1.95-4.07 48.82 48.82 0 0 0 7.17-12.28l0.26-0.66a63.74 63.74 0 0 0 2.46-8.73c0.23-1 0.46-2 0.7-3q0.18-0.73 0.38-1.5a2.5 2.5 0 1 1 4.83 1.28q-0.19 0.72-0.36 1.41c-0.24 1-0.46 1.93-0.69 2.9a69.76 69.76 0 0 1-2.61 9.25c0 0.14-0.08 0.27-0.12 0.38a2.53 2.53 0 0 1-0.52 1.25 53.67 53.67 0 0 1-7.61 12.88 2.49 2.49 0 0 1-1.94 0.89zM590 538.51a2.5 2.5 0 0 1-2.17-3.74 109.76 109.76 0 0 1 17.63-23.23 2.5 2.5 0 1 1 3.54 3.54 104.77 104.77 0 0 0-16.82 22.17 2.5 2.5 0 0 1-2.18 1.26z m40.12-39.62a2.5 2.5 0 0 1-1.17-4.71 101.14 101.14 0 0 1 27.55-9.64 2.5 2.5 0 0 1 1 4.91 96.15 96.15 0 0 0-26.19 9.16 2.49 2.49 0 0 1-1.2 0.28z m54.15-17.41a2.5 2.5 0 0 1-1.2-4.7 41.74 41.74 0 0 0 8.87-6.4 47.28 47.28 0 0 0 9.54-12.86 2.5 2.5 0 1 1 4.46 2.27A52.24 52.24 0 0 1 695.38 474a46.71 46.71 0 0 1-9.93 7.18 2.49 2.49 0 0 1-1.19 0.3z m25.79-47.93a2.5 2.5 0 0 1-2.47-2.53v-0.87a89.89 89.89 0 0 0-4.23-26.48 2.5 2.5 0 1 1 4.78-1.48 94.88 94.88 0 0 1 4.45 28v0.95a2.5 2.5 0 0 1-2.54 2.4z m-16-54.13a2.5 2.5 0 0 1-2.15-1.22 137.18 137.18 0 0 0-16.76-22.44 2.5 2.5 0 1 1 3.68-3.38 142.16 142.16 0 0 1 17.38 23.26 2.5 2.5 0 0 1-2.15 3.78z m-38.35-41.86a2.49 2.49 0 0 1-1.46-0.48 122.51 122.51 0 0 0-24.31-13.78 2.5 2.5 0 1 1 1.94-4.61A127.51 127.51 0 0 1 657.15 333a2.5 2.5 0 0 1-1.47 4.52z m-80.56-18.72a2.5 2.5 0 0 1-0.79-4.87 69.86 69.86 0 0 1 29.29-2.76 2.5 2.5 0 0 1-0.53 5 64.87 64.87 0 0 0-27.19 2.53 2.5 2.5 0 0 1-0.81 0.09z" fill="#66A9F7" /><path d="M544.19 347.68a2.5 2.5 0 0 1-2.31-3.45 53.72 53.72 0 0 1 8-13.51 2.5 2.5 0 1 1 3.88 3.15 48.75 48.75 0 0 0-7.21 12.26 2.5 2.5 0 0 1-2.36 1.55z" fill="#66A9F7" /><path d="M220.26 707.12a103 103 0 0 0-98.68 132.18A56.56 56.56 0 1 0 184 906.38a102.92 102.92 0 1 0 36.22-199.26z" fill="#FFFFFF" /><path d="M128.54 959.5a64.06 64.06 0 0 1-16.2-126 110.32 110.32 0 1 1 76.88 82.5 64.2 64.2 0 0 1-60.68 43.5z m91.72-244.87a95.47 95.47 0 0 0-91.49 122.55l2.52 8.49-8.79 1.08a49.06 49.06 0 1 0 54.18 58.19l1.71-8.7 8.29 3.12a95.42 95.42 0 1 0 33.58-184.74z" fill="#66A9F7" /><path d="M472.22 844.86a80 80 0 0 0-143.59-42.71A69.47 69.47 0 1 0 340.14 911a79.67 79.67 0 0 0 52.28 19.47 80.62 80.62 0 0 0 10.82-0.75 56.56 56.56 0 1 0 69-84.83z" fill="#FFFFFF" /><path d="M449 960.5a64.31 64.31 0 0 1-49.07-22.9c-2.53 0.22-5 0.33-7.49 0.33a87.47 87.47 0 0 1-52-17.17 77 77 0 1 1-13.57-128.25 86.77 86.77 0 0 1 65.6-29.59A87.75 87.75 0 0 1 479.29 840 64.06 64.06 0 0 1 449 960.5z m-42.32-38.85l2.63 3.62a49.06 49.06 0 1 0 59.83-73.57l-4.14-1.85-0.31-4.48a72.49 72.49 0 0 0-130.13-38.7l-4.14 5.46-5.81-3.64a62 62 0 1 0 10.27 97.07l4.93-4.77 5.19 4.49a72.47 72.47 0 0 0 47.38 17.65 73.53 73.53 0 0 0 9.81-0.68z" fill="#66A9F7" /></svg>